<?xml version="1.0" encoding="iso-8859-1"?>
<!-- Generator: Adobe Illustrator 19.0.0, SVG Export Plug-In . SVG Version: 6.00 Build 0)  -->
<svg version="1.1" id="Capa_1" xmlns="http://www.w3.org/2000/svg" xmlns:xlink="http://www.w3.org/1999/xlink" x="0px" y="0px"
	 viewBox="0 0 512.848 512.848" style="enable-background:new 0 0 512.848 512.848;" xml:space="preserve">
<g>
	<g>
		<g>
			<path d="M512.848,101.16L416,4.312l-96.848,96.848l30.72,245.776H320v32h48v128h96v-128h48v-32h-29.872L512.848,101.16z
				 M432,474.936h-32v-96h32V474.936z M449.872,346.936h-67.744l-29.28-234.224L400,65.56v153.376h32V65.56l47.152,47.152
				L449.872,346.936z"/>
			<path d="M208,473.336c-54.784-25.968-176-99.104-176-174.4V87.432l176-44l107.328,26.816l7.776-31.024L208,10.44l-208,52v236.496
				c0,115.2,193.248,202.928,201.456,206.608l6.544,2.992l6.544-2.928c46.299-21.529,89.618-48.957,128.88-81.6l-20.944-24.272
				C287.445,428.82,249.003,453.534,208,473.336z"/>
			<path d="M208,109.352l92.112,23.024l7.776-31.04L208,76.36l-144,36v186.576c0,49.056,85.792,107.792,136.48,134.768l7.52,4
				l7.536-4.016c24.689-13.15,48.238-28.339,70.4-45.408l-19.584-25.344c-18.457,14.25-37.963,27.086-58.352,38.4
				c-67.328-37.28-112-82.4-112-102.4v-161.6L208,109.352z"/>
			<rect x="400" y="250.936" width="32" height="32"/>
		</g>
	</g>
</g>
<g>
</g>
<g>
</g>
<g>
</g>
<g>
</g>
<g>
</g>
<g>
</g>
<g>
</g>
<g>
</g>
<g>
</g>
<g>
</g>
<g>
</g>
<g>
</g>
<g>
</g>
<g>
</g>
<g>
</g>
</svg>
