<svg height="512pt" viewBox="0 0 512 512" width="512pt" xmlns="http://www.w3.org/2000/svg"><path d="m112.09375 346.886719c0-23.109375-18.796875-41.90625-41.90625-41.90625s-41.910156 18.796875-41.910156 41.90625 18.800781 41.910156 41.910156 41.910156 41.90625-18.800781 41.90625-41.910156zm-68.667969 0c0-14.753907 12.003907-26.757813 26.757813-26.757813 14.757812 0 26.761718 12.003906 26.761718 26.757813 0 14.757812-12.003906 26.761719-26.761718 26.761719-14.753906 0-26.757813-12.003907-26.757813-26.761719zm0 0"/><path d="m504.425781 187.007812c4.183594 0 7.574219-3.390624 7.574219-7.574218s-3.390625-7.574219-7.574219-7.574219h-12.621093v-17.351563h12.621093c4.183594 0 7.574219-3.390624 7.574219-7.574218 0-4.179688-3.390625-7.574219-7.574219-7.574219h-192.882812v-45.441406c0-17.261719-14.046875-31.308594-31.308594-31.308594h-65.09375c-4.179687 0-7.574219 3.394531-7.574219 7.574219 0 4.183594 3.394532 7.574218 7.574219 7.574218h65.09375c8.910156 0 16.160156 7.25 16.160156 16.160157v312.507812c-4.71875-2.855469-10.25-4.5-16.160156-4.5h-166.574219c16.253906-12.867187 26.710938-32.746093 26.710938-55.039062v-269.128907h39.449218c4.183594 0 7.574219-3.390624 7.574219-7.574218 0-4.179688-3.390625-7.574219-7.574219-7.574219h-39.863281c-3.792969-35.148437-33.632812-62.609375-69.773437-62.609375-38.699219 0-70.183594 31.484375-70.183594 70.183594v50.914062c0 4.183594 3.390625 7.574219 7.574219 7.574219 4.183593 0 7.574219-3.390625 7.574219-7.574219v-50.914062c0-30.347656 24.691406-55.035156 55.035156-55.035156 30.347656 0 55.039062 24.691406 55.039062 55.035156v233.226562c-12.867187-16.25-32.746094-26.707031-55.039062-26.707031-22.289063 0-42.171875 10.457031-55.035156 26.707031v-146.882812c0-4.179688-3.390626-7.574219-7.574219-7.574219-4.183594 0-7.574219 3.394531-7.574219 7.574219v190.359375c0 38.703125 31.484375 70.1875 70.183594 70.1875h178.746094v63.621093c0 17.261719 14.046874 31.304688 31.308593 31.304688h101.53125c4.183594 0 7.574219-3.390625 7.574219-7.574219 0-4.183593-3.390625-7.574219-7.574219-7.574219h-101.53125c-8.910156 0-16.160156-7.25-16.160156-16.15625 0-8.910156 7.25-16.160156 16.160156-16.160156 17.261719 0 31.304688-14.042968 31.304688-31.304687v-278.722657h165.113281v342.34375h-59.582031c-4.183594 0-7.574219 3.390626-7.574219 7.574219 0 4.183594 3.390625 7.574219 7.574219 7.574219h87.351562c4.183594 0 7.574219-3.390625 7.574219-7.574219 0-4.183593-3.390625-7.574219-7.574219-7.574219h-12.621093v-17.351562h12.621093c4.183594 0 7.574219-3.390625 7.574219-7.574219 0-4.183593-3.390625-7.574219-7.574219-7.574219h-12.621093v-17.351562h12.621093c4.183594 0 7.574219-3.390625 7.574219-7.574219 0-4.183593-3.390625-7.574219-7.574219-7.574219h-12.621093v-17.347656h12.621093c4.183594 0 7.574219-3.394531 7.574219-7.574218 0-4.183594-3.390625-7.574219-7.574219-7.574219h-12.621093v-17.351563h12.621093c4.183594 0 7.574219-3.390625 7.574219-7.574218 0-4.183594-3.390625-7.574219-7.574219-7.574219h-12.621093v-17.351563h12.621093c4.183594 0 7.574219-3.390625 7.574219-7.574218 0-4.183594-3.390625-7.574219-7.574219-7.574219h-12.621093v-17.351563h12.621093c4.183594 0 7.574219-3.390625 7.574219-7.574218 0-4.183594-3.390625-7.574219-7.574219-7.574219h-12.621093v-17.351563h12.621093c4.183594 0 7.574219-3.390625 7.574219-7.574218 0-4.183594-3.390625-7.574219-7.574219-7.574219h-12.621093v-17.351563h12.621093c4.183594 0 7.574219-3.390625 7.574219-7.574218 0-4.183594-3.390625-7.574219-7.574219-7.574219h-12.621093v-17.347657h12.621093c4.183594 0 7.574219-3.394531 7.574219-7.574218 0-4.183594-3.390625-7.574219-7.574219-7.574219h-12.621093v-17.351563zm-489.277343 159.878907c0-30.347657 24.691406-55.035157 55.035156-55.035157 30.347656 0 55.039062 24.6875 55.039062 55.035157 0 30.347656-24.691406 55.039062-55.039062 55.039062-30.34375 0-55.035156-24.691406-55.035156-55.039062zm265.089843 102.503906c-5.910156 0-11.4375 1.644531-16.160156 4.5v-36.816406h16.160156c8.90625 0 16.15625 7.246093 16.15625 16.15625 0 8.910156-7.25 16.160156-16.15625 16.160156zm0 0"/></svg>