<svg height="511pt" viewBox="0 -63 511.9987 511" width="511pt" xmlns="http://www.w3.org/2000/svg"><path d="m495.320312 209.421875c-17.449218-29.769531-44.558593-47.480469-72.613281-47.480469-.175781 0-.359375 0-.535156 0-22.105469-.347656-37.09375-5.101562-45.078125-15.683594-7.984375-10.578124-7.863281-24.875-6.707031-33.988281h40.1875c20.144531 0 36.523437-16.382812 36.523437-36.523437v-38.722656c0-20.144532-16.378906-36.523438-36.523437-36.523438h-311.917969c-20.144531 0-36.523438 16.378906-36.523438 36.523438v38.707031c0 20.140625 16.378907 36.523437 36.523438 36.523437h42.953125c1.144531 9.089844 1.265625 23.359375-6.617187 33.890625-7.984376 10.65625-23.757813 16.007813-45.15625 15.785157-28.460938-.335938-55.585938 17.535156-73.15625 47.488281-20.9375 35.730469-22.253907 78.398437-3.429688 111.359375 16.195312 28.351562 54.046875 61.933594 141.761719 64.441406 1.738281.074219 3.304687.246094 5.167969.246094h187.609374c94.417969-.285156 134.207032-35.34375 150.960938-64.6875 18.824219-32.945313 17.507812-75.617188-3.429688-111.355469zm-396.664062-121.992187c-6.457031 0-11.6875-5.238282-11.6875-11.6875v-38.71875c0-6.457032 5.238281-11.6875 11.6875-11.6875h311.917969c6.457031 0 11.6875 5.242187 11.6875 11.6875v38.707031c0 6.457031-5.238281 11.6875-11.6875 11.6875h-311.917969zm65.640625 273.214843c-3.886719-.015625-7.546875-.152343-11.210937-.273437-12.46875-.90625-21.1875-4.222656-23.773438-9.277344-2.644531-5.179688.261719-14.445312 7.75-24.773438 10.78125-14.878906 24.8125-39.742187 38.386719-63.78125 13.015625-23.050781 26.46875-46.882812 36.140625-60.292968 12.644531-17.5 28.648437-27.394532 45.066406-27.855469.398438 0 .796875-.011719 1.207031-.011719 16.132813 0 32.339844 9.066406 45.785157 25.667969 9.152343 11.289063 22.441406 32.933594 35.296874 53.871094 13.535157 22.046875 27.53125 44.859375 38.160157 58.019531 5.566406 6.90625 14.195312 20.035156 9.191406 30.476562-5.378906 11.25-25.222656 18.242188-51.8125 18.242188h-170.1875zm312.890625-52.171875c-9.5625 16.742188-29.195312 35.726563-69.046875 45.527344.160156-.308594.40625-.585938.558594-.90625 4.65625-9.746094 9.25-30.113281-12.308594-56.789062-9.609375-11.898438-23.183594-34.003907-36.3125-55.398438-13.871094-22.589844-26.972656-43.949219-37.144531-56.519531-18.265625-22.539063-41.304688-34.871094-65.058594-34.871094-.636719 0-1.28125.011719-1.914062.023437-24.328126.683594-47.253907 14.234376-64.503907 38.140626-10.492187 14.539062-23.679687 37.898437-37.640625 62.625-13.226562 23.445312-26.910156 47.6875-36.859375 61.414062-10.980469 15.136719-15.1875 29.839844-12.53125 42.394531-40.210937-9.761719-59.984375-28.847656-69.582031-45.648437-17.25-30.203125-9.601562-64.480469 3.292969-86.496094 12.9375-22.070312 32.050781-35.207031 51.191406-35.207031h1.589844c29.679687 0 51.1875-8.644531 63.980469-25.730469 11.945312-15.960938 12.953124-35.382812 11.722656-48.78125h178.792968c-1.230468 13.398438-.226562 32.820312 11.722657 48.78125 12.792969 17.085938 34.316406 25.730469 63.984375 25.730469.53125 0 1.105468.011719 1.589844 0 19.136718 0 38.246093 13.136719 51.175781 35.207031 12.902343 22.023438 20.550781 56.3125 3.300781 86.503906zm0 0"/><path d="m276.015625 224.035156c0 6.859375-5.558594 12.417969-12.417969 12.417969s-12.417968-5.558594-12.417968-12.417969 5.558593-12.417968 12.417968-12.417968 12.417969 5.558593 12.417969 12.417968zm0 0"/><path d="m238.761719 261.292969c0 6.859375-5.558594 12.417969-12.417969 12.417969s-12.417969-5.558594-12.417969-12.417969 5.558594-12.417969 12.417969-12.417969 12.417969 5.558594 12.417969 12.417969zm0 0"/><path d="m300.855469 286.132812c0 6.855469-5.558594 12.417969-12.417969 12.417969s-12.421875-5.5625-12.421875-12.417969c0-6.859374 5.5625-12.421874 12.421875-12.421874s12.417969 5.5625 12.417969 12.421874zm0 0"/></svg>