<svg id="Layer_1" height="512" viewBox="0 0 512 512" width="512" xmlns="http://www.w3.org/2000/svg" data-name="Layer 1"><path d="m256 210.257a45.743 45.743 0 1 0 45.743 45.743 45.795 45.795 0 0 0 -45.743-45.743zm0 79.486a33.743 33.743 0 1 1 33.743-33.743 33.781 33.781 0 0 1 -33.743 33.743z"/><path d="m72.49 419h17.62c3.142 19 6.876 38.524 11.131 57.671a5.687 5.687 0 0 0 5.859 4.329h297.8a5.687 5.687 0 0 0 5.857-4.329c4.257-19.147 7.991-38.671 11.133-57.671h17.62a6.83 6.83 0 0 0 6.49-6.446v-43.545c0-3.314-3.176-6.009-6.49-6.009h-10.21a1018.341 1018.341 0 0 0 0-214h10.21c3.314 0 6.49-2.695 6.49-6.009v-43.545a6.83 6.83 0 0 0 -6.49-6.446h-17.62c-3.142-19-6.876-38.524-11.131-57.671a5.687 5.687 0 0 0 -5.859-4.329h-297.8a5.687 5.687 0 0 0 -5.857 4.329c-4.256 19.145-7.99 38.671-11.133 57.671h-17.62a6.83 6.83 0 0 0 -6.49 6.446v43.545c0 3.314 3.176 6.009 6.49 6.009h10.21a1018.408 1018.408 0 0 0 0 214h-10.21c-3.314 0-6.49 2.7-6.49 6.009v43.545a6.83 6.83 0 0 0 6.49 6.446zm29.8 0h78.606c1.191 16 2.58 34 4.142 50h-73.115c-3.642-16-6.855-33-9.635-50zm153.71 50h-58.925c-1.57-16-2.955-34-4.153-50h126.156c-1.2 16-2.583 34-4.152 50zm144.077 0h-73.113c1.562-16 2.951-34 4.142-50h78.606c-2.78 17-5.993 34-9.635 50zm17.16-106h-82.905c3.26-71 3.261-143 0-214h82.905a1006.358 1006.358 0 0 1 0 214zm-227.556 0c-3.278-71-3.278-143 0-214h132.639c3.277 71 3.277 143 0 214zm220.058-270h-78.633c-1.192-17-2.58-34-4.142-50h73.113c3.642 16 6.882 33 9.662 50zm-153.739-50h58.926c1.569 16 2.954 33 4.151 50h-126.154c1.2-17 2.582-34 4.152-50zm-144.077 0h73.113c-1.562 16-2.95 33-4.142 50h-78.633c2.78-17 6.02-34 9.662-50zm-33.923 62h356v32h-356zm16.763 44h82.905c-3.261 71-3.26 143 0 214h-82.9a1006.358 1006.358 0 0 1 -.005-214zm-16.763 226h356v32h-356z"/></svg>